<?xml version="1.0" encoding="utf-8"?>
<!-- Generator: Adobe Illustrator 24.2.1, SVG Export Plug-In . SVG Version: 6.00 Build 0)  -->
<svg version="1.1" id="Layer_2_1_" xmlns="http://www.w3.org/2000/svg" xmlns:xlink="http://www.w3.org/1999/xlink" x="0px" y="0px"
	 viewBox="0 0 100 100" style="enable-background:new 0 0 100 100;" xml:space="preserve">
<style type="text/css">
	.st0{fill:#FFFFFF;}
</style>
<path class="st0" d="M73.84,2.35l-7.95,7.95l22.62,22.62l7.95-7.95c2.25-2.25,2.25-5.9,0-8.15L81.99,2.35
	C79.74,0.1,76.09,0.1,73.84,2.35z M87.91,20.29l-2.92,2.92l-9.16-9.16l2.92-2.92L87.91,20.29z M8.51,67.68L0,100l31.02-9.59
	L84.1,37.34L61.48,14.71L8.51,67.68z M26.72,86.77L7.17,92.83l5.31-20.29L26.72,86.77z M63.79,40.42L27.16,77.06
	c-1.28,1.28-3.35,1.28-4.63,0s-1.28-3.35,0-4.63l36.64-36.64c1.28-1.28,3.35-1.28,4.63,0C65.07,37.07,65.07,39.15,63.79,40.42z"/>
</svg>
